<?xml version="1.0" encoding="UTF-8" standalone="yes"?>
<svg version="1.2" width="512" height="512" viewBox="0, 0, 512, 512" baseProfile="tiny-ps" xmlns="http://www.w3.org/2000/svg">
  <title>bimi-svg-tiny-12-ps</title>
  <g id="Background">
    <rect x="0" y="0" width="512" height="512" fill="#FFFFFF"/>
  </g>
  <g id="Layer_1">
    <g>
      <path d="M252.203,52.431 Q253.056,52.461 253.871,53.557 Q254.687,54.653 256.407,54.287 Q256.422,53.86 256.864,53.449 Q256.864,53.449 258.599,52.656 Q260.731,52.732 261.767,53.622 Q262.803,54.512 264.508,54.572 Q264.523,54.146 264.965,53.735 Q265.848,52.912 266.274,52.927 Q267.98,52.987 271.155,53.739 Q274.33,54.492 277.726,55.038 Q293.046,56.432 307.217,60.134 Q321.388,63.835 338.614,71.7 Q339.01,72.568 338.774,73.2 Q338.539,73.832 339.818,73.877 Q341.95,73.952 342.78,74.622 Q343.61,75.292 344.874,75.763 Q346.976,76.691 349.718,77.642 Q352.459,78.592 354.561,79.52 Q356.251,80.006 357.927,80.919 Q359.602,81.832 362.527,83.643 Q363.364,84.099 363.996,84.335 Q364.629,84.571 365.466,85.027 Q365.466,85.027 366.289,85.91 Q366.7,86.352 366.685,86.778 Q370.051,88.177 373.234,88.717 Q376.417,89.256 378.444,92.316 Q378.855,92.757 378.383,94.021 Q377.912,95.285 378.323,95.727 Q380.38,97.934 380.99,98.809 Q381.599,99.684 376.819,102.077 Q376.317,104.194 374.2,103.693 Q372.083,103.191 372.008,105.323 Q367.789,103.893 364.835,102.935 Q361.88,101.977 358.409,103.563 Q358.926,101.019 358.507,100.791 Q358.088,100.563 357.433,100.967 Q356.779,101.371 356.132,101.561 Q355.485,101.752 355.545,100.046 Q355.635,97.488 353.892,98.494 Q352.149,99.5 352.134,99.926 Q350.87,99.455 350.694,98.381 Q350.518,97.308 349.696,96.425 Q347.579,95.923 347.754,96.997 Q347.93,98.07 347.077,98.04 Q345.783,98.421 344.785,96.465 Q343.786,94.509 344.333,91.113 Q341.685,93.581 336.172,92.533 Q334.832,94.193 334.01,93.31 Q333.187,92.428 332.821,90.707 Q332.455,88.986 332.286,87.7 Q332.118,86.413 331.677,86.824 Q330.794,87.647 329.5,88.028 Q328.206,88.41 324.9,85.305 Q303.17,84.112 282.034,84.22 Q260.898,84.329 242.854,87.535 Q239.338,90.399 238.769,94.435 Q238.2,98.47 237.197,102.704 Q236.755,103.116 236.116,103.093 Q235.476,103.07 235.446,103.923 Q235.371,106.055 234.914,106.893 Q234.458,107.731 233.545,109.406 Q231.644,114.889 230.154,120.813 Q230.124,121.666 230.3,122.739 Q230.476,123.813 230.049,123.798 Q228.299,125.017 228.01,127.141 Q227.722,129.266 226.322,132.632 Q225.349,136.012 224.316,141.099 Q223.875,141.51 223.235,141.488 Q222.596,141.465 222.551,142.744 L222.505,144.023 Q222.034,145.288 221.076,148.242 Q220.118,151.197 219.13,155.004 Q218.172,157.959 217.139,163.045 Q217.124,163.472 216.484,163.449 Q215.845,163.427 215.373,164.691 Q215.358,165.117 215.489,167.47 Q215.619,169.822 215.193,169.807 Q213.869,171.041 212.424,175.686 Q210.98,180.332 209.535,184.977 Q209.52,185.403 209.696,186.476 Q209.871,187.55 209.415,188.388 Q207.649,190.033 208.723,189.857 Q209.796,189.682 209.294,191.799 Q209.279,192.225 208.64,192.203 Q208,192.18 207.97,193.033 Q207.469,195.15 207.02,195.774 Q206.571,196.399 206.084,198.089 Q206.054,198.942 206.383,201.728 Q206.712,204.515 205.829,205.338 Q202.754,207.791 201.402,215.854 Q200.051,223.918 198.546,230.269 Q197.603,232.797 196.532,238.949 Q195.462,245.102 194.148,252.099 Q192.834,259.097 191.535,265.668 Q190.236,272.24 189.263,275.621 Q189.248,276.047 188.601,276.238 Q187.953,276.428 187.923,277.281 Q187.863,278.987 188.024,280.487 Q188.184,281.986 187.698,283.677 Q187.271,283.662 186.83,284.073 Q186.389,284.485 186.359,285.337 Q185.205,293.835 182.727,303.567 Q180.25,313.298 178.229,322.192 Q177.18,327.705 176.817,331.961 Q176.453,336.217 175.435,340.878 Q175.009,340.863 174.567,341.274 Q174.126,341.685 174.096,342.538 Q173.033,348.477 172.654,353.16 Q172.276,357.843 171.609,364.65 Q171.137,365.914 170.498,365.891 Q169.858,365.869 169.843,366.295 Q169.828,366.721 171.132,372.104 Q172.437,377.486 171.007,381.705 Q169.272,382.498 167.589,381.798 Q165.906,381.098 164.649,380.413 Q163.393,379.729 162.327,379.691 Q161.261,379.654 160.348,381.329 Q158.657,380.843 158.702,379.563 Q158.748,378.284 157.042,378.224 Q157.393,380.371 156.32,380.547 Q155.246,380.722 153.526,381.089 Q151.469,378.881 148.963,377.299 Q146.458,375.716 145.725,372.275 Q142.269,373.434 140.175,372.293 Q138.08,371.152 135.994,369.798 Q133.907,368.443 131.165,367.493 Q128.424,366.542 124.526,368.113 Q123.704,367.23 123.124,365.502 Q122.545,363.774 121.722,362.891 L116.726,359.299 Q115.933,357.564 116.053,354.153 Q116.174,350.742 115.838,348.168 Q115.15,343.448 114.608,340.654 Q114.066,337.86 114.322,330.612 Q114.307,331.038 115.822,330.451 Q117.337,329.864 116.514,328.981 Q114.442,327.2 115.157,325.091 Q115.872,322.982 116.89,318.322 Q118.043,309.824 118.83,299.606 Q119.618,289.388 121.669,279.641 Q121.699,278.788 122.574,278.179 Q123.45,277.569 123.068,276.275 Q123.083,275.849 122.231,275.819 Q121.378,275.789 121.834,274.951 L122.276,274.54 Q123.159,273.717 123.174,273.291 Q123.234,271.585 124.076,265.852 Q124.919,260.118 125.791,253.532 Q126.664,246.945 127.514,240.998 Q128.364,235.052 128.866,232.935 L129.307,232.523 Q130.19,231.701 130.205,231.274 Q130.872,224.467 132.885,215.787 Q134.899,207.106 136.479,198.623 Q136.935,197.786 136.554,196.492 Q136.173,195.197 136.629,194.36 Q137.557,192.258 138.598,186.958 Q139.639,181.658 140.642,177.425 Q140.657,176.998 141.304,176.808 Q141.951,176.617 141.981,175.764 Q142.603,170.236 144.526,164.114 Q146.45,157.992 147.924,152.494 Q151.847,138.117 156.341,125.682 Q160.835,113.246 165.871,103.605 Q162.063,102.617 158.805,104.209 Q155.547,105.802 152.959,106.565 Q152.091,106.961 151.254,106.505 Q150.416,106.048 149.548,106.444 Q148.68,106.841 147.782,108.09 Q146.884,109.339 146.032,109.309 Q142.561,110.894 139.119,111.627 Q135.678,112.359 131.354,113.914 Q130.913,114.326 130.898,114.752 Q130.883,115.178 130.015,115.575 Q129.162,115.545 128.317,115.301 Q127.472,115.058 126.604,115.454 Q125.721,116.277 124.831,117.313 Q123.94,118.349 123.073,118.745 Q121.763,119.553 120.484,119.508 Q119.205,119.463 118.337,119.859 Q117.47,120.255 117.455,120.682 Q117.44,121.108 116.572,121.504 Q115.704,121.901 114.866,121.444 Q114.029,120.988 113.161,121.384 Q112.293,121.78 111.38,123.456 Q110.467,125.131 110.026,125.543 Q108.29,126.335 107.437,126.305 Q106.585,126.275 104.423,127.053 C103.675,127.498 104.112,127.185 103.224,128.131 C102.754,129.036 102.199,129.833 101.318,130.359 Q100.876,130.77 100.039,130.314 Q99.201,129.857 98.333,130.253 Q95.745,131.016 93.583,131.794 Q93.156,131.779 92.281,132.388 Q91.406,132.998 91.832,133.013 Q89.685,133.364 89.289,132.496 Q88.893,131.628 87.613,131.583 Q84.232,130.61 82.74,130.557 Q81.248,130.505 79.146,129.577 Q78.308,129.12 77.227,129.509 Q76.146,129.898 75.735,129.457 Q75.308,129.442 75.552,128.596 Q75.795,127.751 75.81,127.325 Q73.282,126.382 68.835,125.371 Q64.388,124.361 62.848,119.61 Q62.908,117.905 61.812,118.72 Q60.716,119.535 59.399,120.556 Q58.082,121.577 56.796,121.745 Q55.509,121.913 54.747,119.325 Q52.645,118.397 51.676,115.588 Q50.708,112.779 47.297,112.658 Q47.919,107.13 51.413,104.906 Q54.906,102.681 58.849,99.831 Q60.66,96.907 61.954,96.526 Q65.014,94.499 68.029,93.751 Q71.043,93.004 74.088,91.403 Q74.956,91.007 74.758,90.573 Q74.56,90.139 75.412,90.169 Q77.559,89.818 77.567,89.605 Q77.574,89.392 78.457,88.569 Q79.766,87.762 81.517,86.542 Q83.268,85.323 84.973,85.384 Q85.826,85.414 88.422,84.438 Q91.018,83.462 92.342,82.228 Q94.549,80.171 100.777,79.11 Q107.004,78.049 111.77,76.083 Q112.196,76.098 112.005,75.45 Q111.815,74.803 113.094,74.849 L114.799,74.909 Q116.961,74.131 119.55,73.368 Q122.138,72.606 126.021,71.462 Q126.888,71.066 127.124,70.434 Q127.36,69.802 128.213,69.832 Q138.992,66.797 150.382,64.637 Q161.771,62.477 175.535,59.547 Q176.83,59.165 181.763,58.486 Q186.697,57.806 191.843,57.133 Q194.416,56.797 195.497,56.408 Q196.578,56.02 198.299,55.653 Q197.873,55.638 198.269,56.506 Q198.665,57.374 199.518,57.404 Q199.944,57.419 200.188,56.574 Q200.431,55.728 201.71,55.774 Q205.151,55.041 208.783,54.956 Q212.415,54.87 216.267,54.579 Q222.267,53.937 228.243,53.934 Q234.22,53.931 241.484,53.761 Q243.616,53.836 245.314,54.109 Q247.012,54.382 248.306,54.001 Q249.6,53.62 250.041,53.209 Q250.483,52.797 252.203,52.431 z M144.937,346.206 Q143.231,346.146 141.709,346.946 Q140.186,347.746 140.141,349.025 Q140.949,350.334 141.809,350.151 Q142.669,349.968 143.537,349.572 Q144.405,349.176 145.471,349.213 Q146.537,349.251 147.771,350.575 Q148.699,348.473 147.671,347.37 Q146.642,346.266 144.937,346.206 z M172.522,142.704 C171.701,143.845 172.14,143.387 171.272,144.138 Q169.955,145.159 169.073,145.982 Q168.586,147.672 169.158,149.614 Q169.73,151.555 168.817,153.23 Q168.361,154.068 167.53,153.398 Q166.7,152.729 165.772,154.831 Q166.214,154.419 167.265,154.883 Q168.316,155.347 167.433,156.17 Q165.241,157.8 164.907,161.204 Q164.574,164.607 163.676,165.856 Q161.454,168.339 162.231,170.501 Q163.009,172.663 162.156,172.633 Q160.024,172.558 160.428,173.213 Q160.832,173.867 162.081,174.765 Q162.477,175.633 161.183,176.014 Q160.315,176.411 159.463,176.381 Q158.976,178.071 159.32,180.431 Q159.663,182.791 157.943,183.158 Q157.547,182.29 157.599,180.797 Q157.652,179.305 156.373,179.26 Q155.033,180.92 155.003,181.773 Q154.973,182.626 155.803,183.296 Q156.634,183.965 157.677,184.642 Q158.721,185.32 159.102,186.614 Q156.498,187.803 156.561,192.074 Q156.624,196.345 154.432,197.976 Q152.727,197.916 152.962,197.283 Q153.198,196.651 153.654,195.814 Q154.111,194.976 153.905,194.755 Q153.7,194.535 151.126,194.871 Q150.153,198.252 152.681,199.195 Q155.21,200.138 155.516,203.564 Q154.603,205.239 152.06,204.723 Q149.516,204.206 149.426,206.764 Q151.117,207.251 149.519,210.183 Q147.922,213.115 150.42,214.911 Q149.11,215.718 147.809,216.313 C146.973,216.675 146.303,217.302 145.736,218.001 C146.829,218.039 146.303,217.962 147.315,218.216 Q149.005,218.703 148.975,219.556 Q148.519,220.393 146.608,220.113 Q144.696,219.832 145.504,221.141 Q148.413,223.378 150.074,224.717 L145.384,224.552 Q144.852,227.522 146.322,228.214 Q147.792,228.906 148.584,230.642 Q144.747,230.506 143.363,233.446 Q144.627,233.917 146.796,232.927 Q148.966,231.936 148.479,233.626 Q148.023,234.464 145.891,234.389 Q143.759,234.314 143.302,235.151 Q141.948,237.238 143.175,238.776 Q144.401,240.313 144.707,243.739 L143.854,243.709 Q143.002,243.679 142.957,244.958 Q142.942,245.385 144.221,245.43 Q145.5,245.475 144.587,247.15 L141.176,247.03 Q141.131,248.309 141.003,251.933 Q140.875,255.558 140.725,259.821 Q140.575,264.085 140.66,267.717 Q140.745,271.349 141.142,272.217 Q137.731,272.096 138.759,273.2 Q139.787,274.303 139.316,275.567 Q139.331,275.141 138.448,275.964 L137.565,276.786 Q136.652,278.462 136.63,279.101 Q136.607,279.741 136.805,280.175 Q137.004,280.609 137.407,281.263 Q137.811,281.918 137.325,283.609 L136.472,283.578 L135.619,283.548 Q134.295,284.782 134.684,285.863 Q135.073,286.944 135.682,287.82 Q136.292,288.695 136.673,289.989 Q137.054,291.283 135.304,292.502 Q134.862,292.914 134.817,294.193 Q134.772,295.472 134.925,297.185 Q135.078,298.898 135.025,300.39 Q134.973,301.883 134.958,302.309 Q134.928,303.162 133.45,302.683 Q131.973,302.204 131.913,303.909 Q131.943,303.057 133.398,304.175 C134.328,304.97 133.869,304.492 134.715,305.663 C134.96,305.671 134.798,305.637 134.822,306.147 C134.742,305.687 134.832,305.825 134.715,305.663 C134.294,305.648 134.522,305.588 134.183,306.124 Q133.498,307.381 133.483,307.807 L133.378,310.792 Q134.11,314.233 133.89,314.438 Q133.669,314.644 131.447,317.127 Q133.93,319.349 132.874,325.075 Q131.819,330.802 132.536,334.669 Q133.329,336.405 133.572,335.559 Q133.815,334.714 133.89,332.582 Q133.966,330.45 134.048,328.105 Q134.131,325.76 134.176,324.481 Q135.47,324.1 136.278,325.409 Q137.086,326.718 137.587,324.601 Q134.663,322.79 135.347,321.534 Q136.032,320.277 137.341,319.47 Q138.65,318.662 139.526,318.052 Q140.401,317.443 137.843,317.353 Q136.564,317.308 136.175,316.227 Q135.786,315.146 136.059,313.448 Q136.333,311.75 136.598,310.265 Q136.864,308.78 136.468,307.912 Q138.158,308.399 138.013,306.473 Q137.867,304.546 138.309,304.135 Q139.192,303.312 140.242,303.776 Q141.293,304.24 141.78,302.55 Q141.765,302.976 140.089,302.063 C139.177,301.447 139.5,301.73 139.049,301.306 C139.155,301.204 139.097,300.283 139.091,300.107 L139.083,300.001 C139.704,299.068 140.51,297.887 140.064,296.726 Q141.198,294.845 142.02,295.728 Q142.02,295.728 141.99,296.58 Q141.96,297.433 142.342,298.727 Q142.723,300.021 142.906,300.882 Q143.089,301.742 143.546,300.904 Q144.504,297.95 144.579,295.818 Q144.654,293.686 144.508,291.76 Q144.363,289.833 144.438,287.702 Q144.513,285.57 145.486,282.189 Q144.648,281.732 143.582,281.695 Q142.516,281.657 142.562,280.378 Q141.844,276.51 143.61,274.865 Q145.375,273.22 144.688,268.499 Q145.541,268.529 146.933,265.377 Q148.325,262.224 149.747,258.218 Q151.169,254.213 151.943,250.398 Q152.718,246.583 152.763,245.304 Q150.646,244.802 149.535,246.044 Q148.424,247.286 148.073,245.139 Q150.31,242.229 149.518,240.493 Q148.725,238.758 150.917,237.128 L151.74,238.01 C152.263,238.387 151.994,238.375 152.549,238.033 C150.868,236.296 150.105,234.157 150.252,231.768 Q150.821,227.732 154.794,224.03 Q156.043,224.928 156.417,226.435 Q156.791,227.943 158.938,227.591 Q158.893,228.871 157.819,229.046 Q156.746,229.222 155.459,229.39 Q154.172,229.558 153.518,229.962 Q152.863,230.366 153.229,232.086 C153.142,232.946 153.112,232.555 153.255,233.263 C151.902,233.46 152.643,233.323 151.037,233.717 Q150.124,235.392 151.8,236.305 Q152.196,237.173 153.049,237.203 C152.751,237.973 152.993,237.759 152.549,238.033 C153.486,239.181 152.938,238.576 154.238,239.806 Q154.313,237.674 156.109,235.176 C154.605,235.043 153.584,234.9 153.255,233.263 C154.281,233.109 155.692,232.725 156.332,233.856 C156.41,233.994 156.345,234.173 156.352,234.331 Q156.064,236.455 155.868,241.998 Q157.985,242.5 158.457,241.236 Q158.928,239.971 161.09,239.194 Q161.486,240.062 161.449,241.128 Q161.411,242.194 162.69,242.239 Q163.222,239.269 163.046,238.196 Q162.871,237.122 162.239,236.886 Q161.607,236.651 160.967,236.628 Q160.328,236.606 159.931,235.738 Q163.402,234.152 164.742,232.492 Q162.168,232.828 163.713,231.389 Q165.258,229.949 164.862,229.081 Q164.466,228.213 162.775,227.727 Q161.085,227.24 161.586,225.123 Q161.601,224.697 164.167,224.574 Q166.733,224.451 165.118,221.833 Q163.427,221.346 160.861,221.469 Q158.295,221.592 157.929,219.871 Q160.884,220.829 162.178,220.448 Q163.472,220.067 164.576,219.038 Q165.679,218.01 166.356,216.967 Q167.034,215.923 168.754,215.557 Q166.742,212.071 168.044,211.476 Q169.346,210.882 168.995,208.735 Q168.583,208.294 167.289,208.675 Q165.995,209.056 166.908,207.381 Q167.791,206.558 169.077,206.39 Q170.364,206.222 170.394,205.369 Q170.881,203.679 169.669,201.715 Q168.458,199.751 169.355,198.502 Q169.37,198.075 171.023,199.628 Q172.676,201.18 171.974,196.887 Q172.079,193.902 169.262,195.083 Q166.446,196.265 166.005,196.676 Q165.107,197.925 166.127,199.242 Q167.148,200.559 167.964,201.655 Q168.779,202.751 168.962,203.611 Q169.145,204.471 166.983,205.249 Q167.911,203.147 166.692,201.396 Q165.473,199.646 163.577,198.938 Q161.681,198.231 160.615,198.194 Q159.549,198.156 161.209,199.495 Q164.164,200.453 164.119,201.732 Q164.073,203.012 162.742,204.459 Q161.41,205.906 159.857,207.559 Q158.305,209.212 158.26,210.491 Q165.112,209.879 165.403,213.731 Q162.067,211.479 159.456,212.881 Q156.845,214.283 155.23,211.665 Q156.158,209.563 157.344,206.19 Q158.531,202.816 158.561,201.963 Q158.606,200.684 157.768,200.228 Q156.93,199.771 157.417,198.081 Q157.432,197.655 158.939,197.281 Q160.447,196.907 161.314,196.511 Q162.272,193.556 161.083,190.953 Q159.894,188.349 161.735,184.572 Q164.705,185.104 165.733,186.207 Q166.762,187.311 167.75,183.503 Q166.486,183.032 164.78,182.972 Q163.075,182.912 163.12,181.632 Q163.15,180.78 162.967,179.919 Q162.783,179.059 163.24,178.221 Q163.255,177.795 164.138,176.972 Q164.579,176.561 165.006,176.576 Q165.979,173.195 166.121,169.144 Q166.264,165.094 167.192,162.992 L167.618,163.007 L168.471,163.037 Q169.474,158.803 169.755,156.892 Q170.036,154.981 170.949,153.305 L171.024,151.173 Q171.069,149.894 171.709,149.917 Q172.348,149.939 172.363,149.513 Q172.85,147.823 172.491,145.889 C172.29,144.838 172.29,143.75 172.522,142.704 z M138.429,300.724 L139.049,301.306 C138.755,301.718 138.524,300.916 138.429,300.724 z M139.012,295.928 C139.913,296.353 139.591,296.053 140.064,296.726 C139.302,297.998 139.711,297.308 138.839,298.799 C139.122,299.082 139.056,299.62 139.083,300.001 L138.87,300.312 Q136.799,298.532 137.262,297.481 Q137.727,296.43 138.594,296.034 L139.012,295.928 z M147.529,321.109 Q147.469,322.815 146.396,322.991 Q145.322,323.166 144.256,323.129 Q143.19,323.091 142.536,323.495 Q141.881,323.899 142.644,326.487 Q144.745,327.415 147.188,324.726 Q149.631,322.038 147.529,321.11 z M153.126,292.82 C152.192,292.805 151.484,293.028 150.844,293.691 Q149.725,295.145 146.344,294.172 Q146.209,298.01 145.913,300.347 Q145.617,302.685 145.344,304.383 Q145.071,306.081 145.452,307.375 Q145.833,308.669 147.875,311.303 Q146.169,311.243 144.677,311.19 Q143.185,311.137 143.11,313.269 Q143.551,312.858 143.932,314.152 Q144.314,315.446 144.695,316.741 Q145.076,318.035 145.701,318.484 Q146.325,318.933 147.695,316.419 Q145.989,316.359 146.042,314.867 Q146.094,313.375 147.8,313.435 Q149.505,313.495 149.322,312.635 Q149.139,311.774 148.537,310.686 Q147.935,309.597 147.546,308.516 Q147.157,307.435 148.04,306.613 Q148.908,306.216 149.525,306.878 Q150.142,307.541 150.538,308.408 Q150.935,309.276 151.346,309.718 Q151.757,310.159 152.244,308.468 Q150.98,307.997 151.238,306.725 Q151.496,305.454 151.953,304.616 Q152.409,303.778 152.204,303.558 Q151.998,303.337 149.395,304.526 Q149.44,303.247 148.823,302.585 Q148.206,301.922 148.236,301.07 Q151.632,301.616 152.62,297.809 Q150.929,297.322 151.158,296.904 Q151.386,296.485 152.474,295.883 Q153.563,295.281 154.438,294.671 Q155.313,294.062 155.343,293.209 C154.075,292.887 154.81,293.04 153.126,292.82 z M147.566,282.222 L146.765,282.234 Q146.63,286.071 147.179,288.652 Q147.729,291.233 149.8,293.014 Q149.831,292.161 151.14,291.353 Q152.449,290.545 153.537,289.943 Q154.626,289.341 154.854,288.923 Q155.082,288.504 152.966,288.002 Q152.905,289.708 151.641,289.236 Q152.539,287.987 153.292,284.812 Q154.044,281.637 151.882,282.414 Q151.014,282.81 151.16,284.737 Q151.305,286.663 150.056,285.765 C150.063,284.614 149.951,283.254 148.834,282.587 C148.456,282.361 147.989,282.344 147.566,282.222 z M153.507,272.652 Q151.726,274.724 150.174,276.377 Q148.621,278.03 146.825,280.528 L155.779,280.844 Q156.296,278.301 154.613,277.601 Q152.93,276.901 152.107,276.018 Q153.798,276.505 154.916,275.05 Q156.035,273.595 153.507,272.652 z M145.907,270.25 Q146.273,271.971 145.787,273.661 Q145.3,275.352 144.616,276.608 Q143.931,277.865 143.893,278.931 Q143.856,279.997 145.546,280.483 Q145.195,278.336 147.219,275.419 Q149.243,272.502 145.907,270.25 z M150.812,240.112 Q149.809,244.346 152.36,244.649 Q154.91,244.953 155.673,247.541 Q155.246,247.526 154.273,250.907 Q153.3,254.288 152.511,258.529 Q151.721,262.771 151.166,266.38 Q150.612,269.989 150.597,270.415 Q149.744,270.385 149.471,272.083 Q149.198,273.781 150.462,274.253 Q150.933,272.989 152.554,269.417 Q154.174,265.845 155.824,261.421 Q157.474,256.997 159.109,252.999 Q160.744,249.001 160.789,247.721 Q158.673,247.22 159.35,246.177 Q160.027,245.133 160.91,244.31 Q158.321,245.073 157.057,244.602 Q155.793,244.13 154.97,243.247 Q154.148,242.364 153.333,241.268 Q152.517,240.172 150.812,240.112 z M175.647,237.999 Q176.806,241.456 174.775,244.586 Q172.743,247.716 175.286,248.233 Q179.746,242.84 175.647,237.999 z M175.911,182.083 Q173.779,182.008 172.242,183.235 Q170.704,184.461 169.373,185.909 Q168.041,187.356 166.717,188.59 Q165.392,189.824 162.819,190.16 Q163.185,191.881 162.897,194.005 Q162.608,196.129 164.299,196.616 Q164.876,192.367 165.728,192.397 Q166.581,192.427 167.404,193.31 Q169.139,192.517 170.89,191.298 Q173.92,190.125 173.965,188.845 Q172.275,188.359 172.929,187.955 Q173.584,187.551 174.459,186.942 Q175.334,186.332 176.225,185.296 Q177.115,184.26 175.911,182.083 z M185.867,188.875 C184.003,188.972 184.84,188.844 183.345,189.176 Q184.459,193.911 186.942,196.134 Q186.18,193.545 186.917,190.796 C187.19,189.432 187.031,189.403 185.867,188.875 z M176.152,175.261 Q176.106,176.54 175.261,176.297 Q174.416,176.054 173.358,175.803 Q172.299,175.552 171.431,175.949 Q170.564,176.345 170.062,178.462 Q171.341,178.507 171.502,180.007 Q171.662,181.507 172.5,181.963 Q172.53,181.11 173.839,180.303 Q175.148,179.495 176.245,178.68 Q177.341,177.865 177.584,177.019 Q177.827,176.174 176.152,175.261 z M180.98,146.242 C180.555,146.781 180.343,147.446 180.098,148.078 Q180.786,152.798 178.998,155.083 Q177.209,157.368 179.692,159.59 Q178.383,160.398 176.685,160.125 Q174.987,159.851 174.927,161.557 Q177.867,162.941 175.88,164.792 Q173.894,166.644 172.981,168.319 Q173.422,167.908 174.04,168.57 Q174.657,169.232 174.626,170.085 Q174.611,170.511 173.31,171.105 Q172.008,171.7 172.816,173.009 Q176.287,171.424 177.315,172.527 Q178.344,173.631 179.272,171.529 Q178.389,172.352 177.383,170.609 Q176.377,168.866 176.392,168.439 L178.068,169.352 Q178.905,169.809 179.317,170.25 Q178.995,167.25 178.386,166.375 Q177.776,165.5 176.527,164.602 Q178.188,165.941 178.644,165.103 Q179.101,164.266 179.565,163.215 Q180.029,162.164 180.478,161.539 Q180.927,160.915 183.028,161.843 Q181.047,157.504 182.539,157.556 Q184.031,157.609 184.533,155.492 Q185.401,155.096 183.056,155.013 Q180.711,154.93 181.608,153.681 Q181.639,152.829 183.542,153.323 Q185.446,153.817 184.668,151.655 Q182.491,152.859 182.103,151.778 Q181.714,150.697 181.561,148.984 Q181.408,147.271 181.224,146.41 C181.146,146.189 181.224,146.25 180.98,146.242 z M170.498,166.097 Q169.996,168.214 169.106,169.25 Q168.216,170.286 170.318,171.213 Q170.363,169.934 171.474,168.693 Q172.585,167.451 170.498,166.097 z M183.75,141.376 Q181.969,143.448 182.571,144.537 Q183.173,145.625 184.239,145.663 Q185.305,145.7 185.769,144.649 Q186.233,143.598 183.75,141.376 z M183.127,110.617 Q182.154,113.998 181.66,115.901 Q181.166,117.805 179.842,119.039 Q179.4,119.451 178.906,121.354 Q178.412,123.258 177.971,123.669 Q176.586,126.609 175.872,128.718 Q175.157,130.828 174.229,132.929 Q174.169,134.635 174.169,134.635 Q174.139,135.488 173.499,135.465 Q172.859,135.443 172.844,135.869 Q172.358,137.559 172.724,139.28 Q173.09,141.001 172.619,142.265 L173.06,141.853 Q173.913,141.883 173.943,141.031 Q174.856,139.355 174.894,138.289 Q174.931,137.223 175.829,135.974 Q177.61,133.902 177.244,132.182 Q176.877,130.461 177.82,127.933 Q178.262,127.522 179.38,126.067 Q180.499,124.612 180.955,123.774 Q181.868,122.099 181.921,120.607 Q181.973,119.114 182.886,117.439 Q183.784,116.19 184.948,113.456 Q186.112,110.722 183.127,110.617 z M187.522,131.263 Q187.02,133.38 186.13,134.416 Q185.24,135.452 187.341,136.38 Q187.387,135.101 188.498,133.859 Q189.609,132.618 187.522,131.263 z M192.894,124.195 Q188.63,124.045 187.627,128.279 Q191.891,128.429 192.894,124.195 z" fill="rgba(0,0,0,0.75)"/>
      <path d="M154.794,224.03 Q150.821,227.732 150.252,231.768 Q149.683,235.803 154.238,239.806 Q154.313,237.674 156.109,235.176 Q152.698,235.056 153.229,232.086 Q152.863,230.366 153.518,229.962 Q154.172,229.558 155.459,229.39 Q156.746,229.222 157.819,229.046 Q158.893,228.871 158.938,227.591 Q156.791,227.943 156.417,226.435 Q156.043,224.928 154.794,224.03 z M138.87,300.313 Q140.666,297.814 140.064,296.726 Q139.462,295.637 138.594,296.034 Q137.727,296.43 137.263,297.481 Q136.799,298.532 138.87,300.313 z M376.819,102.077 Q376.317,104.194 374.2,103.693 Q372.083,103.191 372.008,105.323 Q367.789,103.893 364.835,102.935 Q361.88,101.977 358.409,103.563 Q358.926,101.019 358.507,100.791 Q358.088,100.563 357.433,100.967 Q356.779,101.371 356.132,101.561 Q355.485,101.752 355.545,100.046 Q355.635,97.488 353.892,98.494 Q352.149,99.5 352.134,99.926 Q350.87,99.455 350.694,98.381 Q350.518,97.308 349.696,96.425 Q347.579,95.923 347.754,96.997 Q347.93,98.07 347.077,98.04 Q345.783,98.421 344.785,96.465 Q343.786,94.509 344.333,91.113 Q341.685,93.581 336.172,92.533 Q334.832,94.193 334.01,93.31 Q333.187,92.428 332.821,90.707 Q332.455,88.986 332.286,87.7 Q332.118,86.413 331.677,86.824 Q330.794,87.647 329.5,88.028 Q328.206,88.41 324.9,85.305 Q303.17,84.112 282.034,84.22 Q260.898,84.329 242.854,87.535 Q239.338,90.399 238.769,94.435 Q238.2,98.47 237.197,102.704 Q236.755,103.116 236.116,103.093 Q235.476,103.07 235.446,103.923 Q235.371,106.055 234.914,106.893 Q234.458,107.731 233.545,109.406 Q231.644,114.889 230.154,120.813 Q230.124,121.666 230.3,122.739 Q230.476,123.813 230.049,123.798 Q228.299,125.017 228.01,127.141 Q227.722,129.266 226.322,132.632 Q225.349,136.012 224.316,141.099 Q223.875,141.51 223.235,141.488 Q222.596,141.465 222.551,142.744 L222.506,144.024 Q222.034,145.288 221.076,148.242 Q220.118,151.197 219.13,155.004 Q218.172,157.959 217.139,163.045 Q217.124,163.472 216.484,163.449 Q215.845,163.427 215.373,164.691 Q215.358,165.117 215.489,167.47 Q215.619,169.822 215.193,169.807 Q213.869,171.041 212.424,175.686 Q210.98,180.332 209.535,184.977 Q209.52,185.403 209.696,186.476 Q209.871,187.55 209.415,188.388 Q207.649,190.033 208.723,189.857 Q209.796,189.682 209.294,191.799 Q209.279,192.225 208.64,192.203 Q208,192.18 207.97,193.033 Q207.469,195.15 207.02,195.774 Q206.571,196.399 206.084,198.089 Q206.054,198.942 206.383,201.728 Q206.712,204.515 205.829,205.338 Q202.754,207.791 201.402,215.854 Q200.051,223.918 198.546,230.269 Q197.603,232.797 196.532,238.949 Q195.462,245.102 194.148,252.099 Q192.834,259.097 191.535,265.668 Q190.236,272.24 189.263,275.621 Q189.248,276.047 188.601,276.238 Q187.953,276.428 187.923,277.281 Q187.863,278.987 188.024,280.487 Q188.184,281.986 187.698,283.677 Q187.271,283.662 186.83,284.073 Q186.389,284.485 186.359,285.337 Q185.205,293.835 182.727,303.567 Q180.25,313.298 178.229,322.192 Q177.18,327.705 176.817,331.961 Q176.453,336.217 175.435,340.878 Q175.009,340.863 174.567,341.274 Q174.126,341.685 174.096,342.538 Q173.033,348.477 172.654,353.16 Q172.276,357.843 171.609,364.65 Q171.137,365.914 170.498,365.891 Q169.858,365.869 169.843,366.295 Q169.828,366.721 171.132,372.104 Q172.437,377.486 171.007,381.705 Q169.272,382.498 167.589,381.798 Q165.906,381.098 164.649,380.413 Q163.393,379.729 162.327,379.691 Q161.261,379.654 160.348,381.329 Q158.657,380.843 158.702,379.563 Q158.748,378.284 157.042,378.224 Q157.393,380.371 156.32,380.547 Q155.246,380.722 153.526,381.089 Q151.469,378.881 148.963,377.299 Q146.458,375.716 145.725,372.275 Q142.269,373.434 140.175,372.293 Q138.08,371.152 135.994,369.798 Q133.907,368.443 131.165,367.493 Q128.424,366.542 124.526,368.113 Q123.704,367.23 123.124,365.502 Q122.545,363.774 121.722,362.891 L116.726,359.299 Q115.933,357.564 116.053,354.153 Q116.174,350.742 115.838,348.168 Q115.15,343.448 114.608,340.654 Q114.066,337.86 114.322,330.612 Q114.307,331.038 115.822,330.451 Q117.337,329.864 116.514,328.981 Q114.442,327.2 115.157,325.091 Q115.872,322.982 116.89,318.322 Q118.043,309.824 118.83,299.606 Q119.618,289.388 121.669,279.641 Q121.699,278.788 122.574,278.179 Q123.45,277.569 123.068,276.275 Q123.083,275.849 122.231,275.819 Q121.378,275.789 121.834,274.951 L122.276,274.54 Q123.159,273.717 123.174,273.291 Q123.234,271.585 124.076,265.852 Q124.919,260.118 125.791,253.532 Q126.664,246.945 127.514,240.998 Q128.364,235.052 128.866,232.935 L129.307,232.523 Q130.19,231.701 130.205,231.274 Q130.872,224.467 132.885,215.787 Q134.899,207.106 136.479,198.623 Q136.935,197.786 136.554,196.492 Q136.173,195.197 136.629,194.36 Q137.557,192.258 138.598,186.958 Q139.639,181.658 140.642,177.425 Q140.657,176.998 141.304,176.808 Q141.951,176.617 141.981,175.764 Q142.603,170.236 144.526,164.114 Q146.45,157.992 147.924,152.494 Q151.847,138.117 156.341,125.682 Q160.835,113.246 165.871,103.605 Q162.063,102.617 158.805,104.209 Q155.547,105.802 152.959,106.565 Q152.091,106.961 151.254,106.505 Q150.416,106.048 149.548,106.444 Q148.68,106.841 147.782,108.09 Q146.884,109.339 146.032,109.309 Q142.561,110.894 139.119,111.627 Q135.678,112.359 131.354,113.914 Q130.913,114.326 130.898,114.752 Q130.883,115.178 130.015,115.575 Q129.162,115.545 128.317,115.301 Q127.472,115.058 126.604,115.454 Q125.721,116.277 124.831,117.313 Q123.94,118.349 123.073,118.745 Q121.763,119.553 120.484,119.508 Q119.205,119.463 118.337,119.859 Q117.47,120.255 117.455,120.682 Q117.44,121.108 116.572,121.504 Q115.704,121.901 114.866,121.444 Q114.029,120.988 113.161,121.384 Q112.293,121.78 111.38,123.456 Q110.467,125.131 110.026,125.543 Q108.29,126.335 107.437,126.305 Q106.585,126.275 104.423,127.053 Q103.555,127.449 102.87,128.706 Q102.185,129.962 101.318,130.359 Q100.876,130.77 100.039,130.314 Q99.201,129.857 98.333,130.253 Q95.745,131.016 93.583,131.794 Q93.156,131.779 92.281,132.388 Q91.406,132.998 91.832,133.013 Q89.685,133.364 89.289,132.496 Q88.893,131.628 87.613,131.583 Q84.232,130.61 82.74,130.557 Q81.248,130.505 79.146,129.577 Q78.308,129.12 77.227,129.509 Q76.146,129.898 75.735,129.457 Q75.308,129.442 75.552,128.596 Q75.795,127.751 75.81,127.325 Q73.282,126.382 68.835,125.371 Q64.388,124.361 62.848,119.61 Q62.908,117.905 61.812,118.72 Q60.716,119.535 59.399,120.556 Q58.082,121.577 56.796,121.745 Q55.509,121.913 54.747,119.325 Q52.645,118.397 51.676,115.588 Q50.708,112.779 47.297,112.658 Q47.919,107.13 51.413,104.906 Q54.906,102.681 58.849,99.831 Q60.66,96.907 61.954,96.526 Q65.014,94.499 68.029,93.751 Q71.043,93.004 74.088,91.403 Q74.956,91.007 74.758,90.573 Q74.56,90.139 75.412,90.169 Q77.559,89.818 77.567,89.605 Q77.574,89.392 78.457,88.569 Q79.766,87.762 81.517,86.542 Q83.268,85.323 84.973,85.384 Q85.826,85.414 88.422,84.438 Q91.018,83.462 92.342,82.228 Q94.549,80.171 100.777,79.11 Q107.004,78.049 111.77,76.083 Q112.196,76.098 112.005,75.45 Q111.815,74.803 113.094,74.849 L114.799,74.909 Q116.961,74.131 119.55,73.368 Q122.138,72.606 126.021,71.462 Q126.888,71.066 127.124,70.434 Q127.36,69.802 128.213,69.832 Q138.992,66.797 150.382,64.637 Q161.771,62.477 175.535,59.547 Q176.83,59.165 181.763,58.486 Q186.697,57.806 191.843,57.133 Q194.416,56.797 195.497,56.408 Q196.578,56.02 198.299,55.653 Q197.873,55.638 198.269,56.506 Q198.665,57.374 199.518,57.404 Q199.944,57.419 200.188,56.574 Q200.431,55.728 201.71,55.774 Q205.151,55.041 208.783,54.956 Q212.415,54.87 216.267,54.579 Q222.267,53.937 228.243,53.934 Q234.22,53.931 241.484,53.761 Q243.616,53.836 245.314,54.109 Q247.012,54.382 248.306,54.001 Q249.6,53.62 250.041,53.209 Q250.483,52.797 252.203,52.431 Q253.056,52.461 253.871,53.557 Q254.687,54.653 256.407,54.287 Q256.422,53.86 256.864,53.449 Q256.864,53.449 258.599,52.656 Q260.731,52.732 261.767,53.622 Q262.803,54.512 264.508,54.572 Q264.523,54.146 264.965,53.735 Q265.848,52.912 266.274,52.927 Q267.98,52.987 271.155,53.739 Q274.33,54.492 277.726,55.038 Q293.046,56.432 307.217,60.134 Q321.388,63.835 338.614,71.7 Q339.01,72.568 338.774,73.2 Q338.539,73.832 339.818,73.877 Q341.95,73.952 342.78,74.622 Q343.61,75.292 344.874,75.763 Q346.976,76.691 349.718,77.642 Q352.459,78.592 354.561,79.52 Q356.251,80.006 357.927,80.919 Q359.602,81.832 362.527,83.643 Q363.364,84.099 363.996,84.335 Q364.629,84.571 365.466,85.027 Q365.466,85.027 366.289,85.91 Q366.7,86.352 366.685,86.778 Q370.051,88.177 373.234,88.717 Q376.417,89.256 378.444,92.316 Q378.855,92.757 378.383,94.021 Q377.912,95.285 378.323,95.727 Q380.38,97.934 380.99,98.809 Q381.599,99.684 376.819,102.077 z M179.842,119.039 Q179.4,119.451 178.906,121.354 Q178.412,123.258 177.971,123.669 Q176.586,126.609 175.872,128.718 Q175.157,130.828 174.229,132.929 Q174.169,134.635 174.169,134.635 Q174.139,135.488 173.499,135.465 Q172.859,135.443 172.844,135.869 Q172.358,137.559 172.724,139.28 Q173.09,141.001 172.619,142.265 Q172.589,143.117 171.272,144.138 Q169.955,145.159 169.073,145.982 Q168.586,147.672 169.158,149.614 Q169.73,151.555 168.817,153.23 Q168.361,154.068 167.53,153.398 Q166.7,152.729 165.772,154.831 Q166.214,154.419 167.265,154.883 Q168.316,155.347 167.433,156.17 Q165.241,157.8 164.907,161.204 Q164.574,164.607 163.676,165.856 Q161.454,168.339 162.231,170.501 Q163.009,172.663 162.156,172.633 Q160.024,172.558 160.428,173.213 Q160.832,173.867 162.081,174.765 Q162.477,175.633 161.183,176.014 Q160.315,176.411 159.463,176.381 Q158.976,178.071 159.32,180.431 Q159.663,182.791 157.943,183.158 Q157.547,182.29 157.599,180.797 Q157.652,179.305 156.373,179.26 Q155.033,180.92 155.003,181.773 Q154.973,182.626 155.803,183.296 Q156.634,183.965 157.677,184.642 Q158.721,185.32 159.102,186.614 Q156.498,187.803 156.561,192.074 Q156.624,196.345 154.432,197.976 Q152.727,197.916 152.962,197.283 Q153.198,196.651 153.654,195.814 Q154.111,194.976 153.905,194.755 Q153.7,194.535 151.126,194.871 Q150.153,198.252 152.681,199.195 Q155.21,200.138 155.516,203.564 Q154.603,205.239 152.06,204.723 Q149.516,204.206 149.426,206.764 Q151.117,207.251 149.519,210.183 Q147.922,213.115 150.42,214.911 Q149.11,215.718 147.809,216.313 Q146.507,216.907 145.609,218.156 Q145.624,217.73 147.315,218.216 Q149.005,218.703 148.975,219.556 Q148.519,220.393 146.608,220.113 Q144.696,219.832 145.504,221.141 Q148.413,223.378 150.074,224.717 L145.384,224.552 Q144.852,227.522 146.322,228.214 Q147.792,228.906 148.584,230.642 Q144.747,230.506 143.363,233.446 Q144.627,233.917 146.796,232.927 Q148.966,231.936 148.479,233.626 Q148.023,234.464 145.891,234.389 Q143.759,234.314 143.302,235.151 Q141.948,237.238 143.175,238.776 Q144.401,240.313 144.707,243.739 L143.854,243.709 Q143.002,243.679 142.957,244.958 Q142.942,245.385 144.221,245.43 Q145.5,245.475 144.587,247.15 L141.176,247.03 Q141.131,248.309 141.003,251.933 Q140.875,255.558 140.725,259.821 Q140.575,264.085 140.66,267.717 Q140.745,271.349 141.142,272.217 Q137.731,272.096 138.759,273.2 Q139.787,274.303 139.316,275.567 Q139.331,275.141 138.448,275.964 L137.565,276.786 Q136.652,278.462 136.63,279.101 Q136.607,279.741 136.805,280.175 Q137.004,280.609 137.407,281.263 Q137.811,281.918 137.325,283.609 L136.472,283.578 L135.619,283.548 Q134.295,284.782 134.684,285.863 Q135.073,286.944 135.682,287.82 Q136.292,288.695 136.673,289.989 Q137.054,291.283 135.304,292.502 Q134.862,292.914 134.817,294.193 Q134.772,295.472 134.925,297.185 Q135.078,298.898 135.025,300.39 Q134.973,301.883 134.958,302.309 Q134.928,303.162 133.45,302.683 Q131.973,302.204 131.913,303.909 Q131.943,303.057 133.398,304.175 Q134.853,305.294 134.822,306.147 Q134.868,304.867 134.183,306.124 Q133.498,307.381 133.483,307.807 L133.378,310.792 Q134.11,314.233 133.89,314.438 Q133.669,314.644 131.447,317.127 Q133.93,319.349 132.874,325.075 Q131.819,330.802 132.536,334.669 Q133.329,336.405 133.572,335.559 Q133.815,334.714 133.89,332.582 Q133.966,330.45 134.048,328.105 Q134.131,325.76 134.176,324.481 Q135.47,324.1 136.278,325.409 Q137.086,326.718 137.587,324.601 Q134.663,322.79 135.347,321.534 Q136.032,320.277 137.341,319.47 Q138.65,318.662 139.526,318.052 Q140.401,317.443 137.843,317.353 Q136.564,317.308 136.175,316.227 Q135.786,315.146 136.059,313.448 Q136.333,311.75 136.598,310.265 Q136.864,308.78 136.468,307.912 Q138.158,308.399 138.013,306.473 Q137.867,304.546 138.309,304.135 Q139.192,303.312 140.242,303.776 Q141.293,304.24 141.78,302.55 Q141.765,302.976 140.089,302.063 Q139.252,301.607 138.429,300.724 Q139.222,302.46 139.091,300.107 Q138.961,297.754 138.474,299.445 Q138.93,298.607 140.064,296.726 Q141.198,294.845 142.02,295.728 Q142.02,295.728 141.99,296.58 Q141.96,297.433 142.342,298.727 Q142.723,300.021 142.906,300.882 Q143.089,301.742 143.546,300.904 Q144.504,297.95 144.579,295.818 Q144.654,293.686 144.508,291.76 Q144.363,289.833 144.438,287.702 Q144.513,285.57 145.486,282.189 Q144.648,281.732 143.582,281.695 Q142.516,281.657 142.562,280.378 Q141.844,276.51 143.61,274.865 Q145.375,273.22 144.688,268.499 Q145.541,268.529 146.933,265.377 Q148.325,262.224 149.747,258.218 Q151.169,254.213 151.943,250.398 Q152.718,246.583 152.763,245.304 Q150.646,244.802 149.535,246.044 Q148.424,247.286 148.073,245.139 Q150.31,242.229 149.518,240.493 Q148.725,238.758 150.917,237.128 L151.74,238.01 Q152.562,238.893 153.049,237.203 Q152.196,237.173 151.8,236.305 Q150.124,235.392 151.037,233.717 Q156.64,232.206 156.352,234.331 Q156.064,236.455 155.868,241.998 Q157.985,242.5 158.457,241.236 Q158.928,239.971 161.09,239.194 Q161.486,240.062 161.449,241.128 Q161.411,242.194 162.69,242.239 Q163.222,239.269 163.046,238.196 Q162.871,237.122 162.239,236.886 Q161.607,236.651 160.967,236.628 Q160.328,236.606 159.931,235.738 Q163.402,234.152 164.742,232.492 Q162.168,232.828 163.713,231.389 Q165.258,229.949 164.862,229.081 Q164.466,228.213 162.775,227.727 Q161.085,227.24 161.586,225.123 Q161.601,224.697 164.167,224.574 Q166.733,224.451 165.118,221.833 Q163.427,221.346 160.861,221.469 Q158.295,221.592 157.929,219.871 Q160.884,220.829 162.178,220.448 Q163.472,220.067 164.576,219.038 Q165.679,218.01 166.356,216.967 Q167.034,215.923 168.754,215.557 Q166.742,212.071 168.044,211.476 Q169.346,210.882 168.995,208.735 Q168.583,208.294 167.289,208.675 Q165.995,209.056 166.908,207.381 Q167.791,206.558 169.077,206.39 Q170.364,206.222 170.394,205.369 Q170.881,203.679 169.669,201.715 Q168.458,199.751 169.355,198.502 Q169.37,198.075 171.023,199.628 Q172.676,201.18 171.974,196.887 Q172.079,193.902 169.262,195.083 Q166.446,196.265 166.005,196.676 Q165.107,197.925 166.127,199.242 Q167.148,200.559 167.964,201.655 Q168.779,202.751 168.962,203.611 Q169.145,204.471 166.983,205.249 Q167.911,203.147 166.692,201.396 Q165.473,199.646 163.577,198.938 Q161.681,198.231 160.615,198.194 Q159.549,198.156 161.209,199.495 Q164.164,200.453 164.119,201.732 Q164.073,203.012 162.742,204.459 Q161.41,205.906 159.857,207.559 Q158.305,209.212 158.26,210.491 Q165.112,209.879 165.403,213.731 Q162.067,211.479 159.456,212.881 Q156.845,214.283 155.23,211.665 Q156.158,209.563 157.344,206.19 Q158.531,202.816 158.561,201.963 Q158.606,200.684 157.768,200.228 Q156.93,199.771 157.417,198.081 Q157.432,197.655 158.939,197.281 Q160.447,196.907 161.314,196.511 Q162.272,193.556 161.083,190.953 Q159.894,188.349 161.735,184.572 Q164.705,185.104 165.733,186.207 Q166.762,187.311 167.75,183.503 Q166.486,183.032 164.78,182.972 Q163.075,182.912 163.12,181.632 Q163.15,180.78 162.967,179.919 Q162.783,179.059 163.24,178.221 Q163.255,177.795 164.138,176.972 Q164.579,176.561 165.006,176.576 Q165.979,173.195 166.121,169.144 Q166.264,165.094 167.192,162.992 L167.619,163.007 L168.471,163.037 Q169.474,158.803 169.755,156.892 Q170.036,154.981 170.949,153.305 L171.024,151.174 Q171.069,149.894 171.709,149.917 Q172.348,149.939 172.363,149.513 Q172.85,147.823 172.491,145.889 Q172.132,143.955 172.619,142.265 L173.06,141.853 Q173.913,141.883 173.943,141.031 Q174.856,139.355 174.894,138.289 Q174.931,137.223 175.829,135.974 Q177.61,133.902 177.244,132.182 Q176.877,130.461 177.82,127.933 Q178.262,127.522 179.38,126.067 Q180.499,124.612 180.955,123.774 Q181.868,122.099 181.921,120.607 Q181.973,119.114 182.886,117.439 Q183.784,116.19 184.948,113.456 Q186.112,110.722 183.127,110.617 Q182.154,113.998 181.66,115.901 Q181.166,117.805 179.842,119.039 z M145.546,280.483 Q145.195,278.336 147.219,275.419 Q149.243,272.502 145.907,270.25 Q146.273,271.971 145.787,273.661 Q145.3,275.352 144.616,276.608 Q143.931,277.865 143.893,278.931 Q143.856,279.997 145.546,280.483 z M160.789,247.721 Q158.673,247.22 159.35,246.177 Q160.027,245.133 160.91,244.31 Q158.321,245.073 157.057,244.602 Q155.793,244.13 154.97,243.247 Q154.148,242.364 153.333,241.268 Q152.517,240.172 150.812,240.112 Q149.809,244.346 152.36,244.649 Q154.91,244.953 155.673,247.541 Q155.246,247.526 154.273,250.907 Q153.3,254.288 152.511,258.529 Q151.721,262.771 151.166,266.38 Q150.612,269.989 150.597,270.415 Q149.744,270.385 149.471,272.083 Q149.198,273.781 150.462,274.253 Q150.933,272.989 152.554,269.417 Q154.174,265.845 155.824,261.421 Q157.474,256.997 159.109,252.999 Q160.744,249.001 160.789,247.721 z M155.779,280.844 Q156.296,278.301 154.613,277.601 Q152.93,276.901 152.107,276.018 Q153.798,276.505 154.916,275.05 Q156.035,273.595 153.507,272.652 Q151.726,274.724 150.174,276.377 Q148.621,278.03 146.825,280.528 z M187.627,128.279 Q191.891,128.429 192.894,124.195 Q188.63,124.045 187.627,128.279 z M187.341,136.38 Q187.387,135.101 188.498,133.859 Q189.609,132.618 187.522,131.263 Q187.02,133.38 186.13,134.416 Q185.24,135.452 187.341,136.38 z M183.75,141.376 Q181.969,143.448 182.571,144.537 Q183.173,145.625 184.239,145.663 Q185.305,145.7 185.769,144.649 Q186.233,143.598 183.75,141.376 z M172.981,168.319 Q173.422,167.908 174.04,168.57 Q174.657,169.232 174.626,170.085 Q174.611,170.511 173.31,171.105 Q172.008,171.7 172.816,173.009 Q176.287,171.424 177.315,172.527 Q178.344,173.631 179.272,171.529 Q178.389,172.352 177.383,170.609 Q176.377,168.866 176.392,168.439 L178.068,169.352 Q178.905,169.809 179.317,170.25 Q178.995,167.25 178.386,166.375 Q177.776,165.5 176.527,164.602 Q178.188,165.941 178.644,165.103 Q179.101,164.266 179.565,163.215 Q180.029,162.164 180.478,161.539 Q180.927,160.915 183.028,161.843 Q181.047,157.504 182.539,157.556 Q184.031,157.609 184.533,155.492 Q185.401,155.096 183.056,155.013 Q180.711,154.93 181.608,153.681 Q181.639,152.829 183.542,153.323 Q185.446,153.817 184.668,151.655 Q182.491,152.859 182.103,151.778 Q181.714,150.697 181.561,148.984 Q181.408,147.271 181.224,146.41 Q181.041,145.55 180.098,148.078 Q180.786,152.798 178.998,155.083 Q177.209,157.368 179.692,159.59 Q178.383,160.398 176.685,160.125 Q174.987,159.851 174.927,161.557 Q177.867,162.941 175.88,164.792 Q173.894,166.644 172.981,168.319 z M170.318,171.213 Q170.363,169.934 171.474,168.693 Q172.585,167.451 170.498,166.097 Q169.996,168.214 169.106,169.25 Q168.216,170.286 170.318,171.213 z M162.819,190.16 Q163.185,191.881 162.897,194.005 Q162.608,196.129 164.299,196.616 Q164.876,192.367 165.728,192.397 Q166.581,192.427 167.404,193.31 Q169.139,192.517 170.89,191.298 Q173.92,190.125 173.965,188.845 Q172.275,188.359 172.929,187.955 Q173.584,187.551 174.459,186.942 Q175.334,186.332 176.225,185.296 Q177.115,184.26 175.911,182.083 Q173.779,182.008 172.242,183.235 Q170.704,184.461 169.373,185.909 Q168.041,187.356 166.717,188.59 Q165.392,189.824 162.819,190.16 z M176.152,175.261 Q176.106,176.54 175.261,176.297 Q174.416,176.054 173.358,175.803 Q172.299,175.552 171.431,175.949 Q170.564,176.345 170.062,178.462 Q171.341,178.507 171.502,180.007 Q171.662,181.507 172.5,181.963 Q172.53,181.11 173.839,180.303 Q175.148,179.495 176.245,178.68 Q177.341,177.865 177.584,177.019 Q177.827,176.174 176.152,175.261 z M186.942,196.134 Q186.18,193.545 186.917,190.796 Q187.654,188.047 183.345,189.176 Q184.459,193.911 186.942,196.134 z M175.286,248.233 Q179.746,242.84 175.647,237.999 Q176.806,241.456 174.775,244.586 Q172.743,247.716 175.286,248.233 z M151.641,289.236 Q152.539,287.987 153.292,284.812 Q154.044,281.637 151.882,282.414 Q151.014,282.81 151.16,284.737 Q151.305,286.663 150.056,285.765 Q150.191,281.928 146.765,282.234 Q146.63,286.071 147.179,288.652 Q147.729,291.233 149.8,293.014 Q149.831,292.161 151.14,291.353 Q152.449,290.545 153.537,289.943 Q154.626,289.341 154.854,288.923 Q155.082,288.504 152.966,288.002 Q152.905,289.708 151.641,289.236 z M149.395,304.526 Q149.44,303.247 148.823,302.585 Q148.206,301.922 148.236,301.07 Q151.632,301.616 152.62,297.809 Q150.929,297.322 151.158,296.904 Q151.386,296.485 152.474,295.883 Q153.563,295.281 154.438,294.671 Q155.313,294.062 155.343,293.209 Q151.962,292.236 150.844,293.691 Q149.725,295.145 146.344,294.172 Q146.209,298.01 145.913,300.347 Q145.617,302.685 145.344,304.383 Q145.071,306.081 145.452,307.375 Q145.833,308.669 147.875,311.303 Q146.169,311.243 144.677,311.19 Q143.185,311.137 143.11,313.269 Q143.551,312.858 143.932,314.152 Q144.314,315.446 144.695,316.741 Q145.076,318.035 145.701,318.484 Q146.325,318.933 147.695,316.419 Q145.989,316.359 146.042,314.867 Q146.094,313.375 147.8,313.435 Q149.505,313.495 149.322,312.635 Q149.139,311.774 148.537,310.686 Q147.935,309.597 147.546,308.516 Q147.157,307.435 148.04,306.613 Q148.908,306.216 149.525,306.878 Q150.142,307.541 150.538,308.408 Q150.935,309.276 151.346,309.718 Q151.757,310.159 152.244,308.468 Q150.98,307.997 151.238,306.725 Q151.496,305.454 151.953,304.616 Q152.409,303.778 152.204,303.558 Q151.998,303.337 149.395,304.526 z M142.644,326.487 Q144.745,327.415 147.188,324.726 Q149.631,322.038 147.529,321.11 Q147.469,322.815 146.396,322.991 Q145.322,323.166 144.256,323.129 Q143.19,323.091 142.536,323.495 Q141.881,323.899 142.644,326.487 z M147.771,350.575 Q148.699,348.473 147.671,347.37 Q146.642,346.266 144.937,346.206 Q143.231,346.146 141.709,346.946 Q140.186,347.746 140.141,349.025 Q140.949,350.334 141.809,350.151 Q142.669,349.968 143.537,349.572 Q144.405,349.176 145.471,349.213 Q146.537,349.251 147.771,350.575 z" fill="#AA182B"/>
    </g>
    <g>
      <path d="M396.04,140.273 C406.545,140.303 402.031,140.084 409.596,140.629 Q413.017,143.018 416.667,144.192 Q420.318,145.366 424.224,147.75 Q425.194,147.739 424.959,148.469 Q424.724,149.2 426.179,149.184 Q428.125,149.648 428.857,150.126 Q429.59,150.603 431.05,151.073 Q434.946,152.486 439.82,154.617 Q444.693,156.748 449.079,158.642 Q449.569,159.122 451.019,158.621 Q452.469,158.121 452.474,158.606 Q453.95,160.53 454.915,160.035 Q455.88,159.54 458.315,160.484 Q459.295,161.444 460.781,164.338 Q462.267,167.233 464.703,168.177 Q463.759,170.613 463.537,172.555 Q463.315,174.498 461.886,176.939 Q460.936,178.889 459.252,180.12 Q457.567,181.35 456.612,182.816 Q456.138,183.791 456.636,184.998 Q457.133,186.206 456.654,186.696 Q451.845,190.628 447.541,196.494 Q445.152,199.915 442.268,202.372 Q439.384,204.828 436.99,207.764 Q434.59,210.214 432.689,213.873 Q430.787,217.531 428.398,220.952 Q427.439,221.932 425.266,222.926 Q423.094,223.919 423.125,226.829 Q423.151,229.254 419.072,233.421 Q414.993,237.587 412.594,240.038 Q411.634,241.019 410.437,242.487 Q409.24,243.955 408.771,245.415 Q408.781,246.385 407.339,247.613 Q405.897,248.841 405.417,249.331 Q404.457,250.312 404.467,251.282 Q404.478,252.252 403.518,253.232 Q402.563,254.698 400.879,255.928 Q399.194,257.159 398.245,259.109 L397.416,260.998 C396.023,265.179 396.739,263.392 395.412,266.415 Q393.503,269.346 391.828,271.547 Q390.154,273.748 388.255,277.648 Q387.781,278.624 387.048,278.146 Q386.315,277.669 386.336,279.609 L386.356,281.549 Q385.402,283.015 383.717,284.245 Q382.033,285.476 381.083,287.426 Q380.129,288.892 379.422,290.84 Q378.715,292.788 377.28,294.743 Q376.326,296.208 374.644,297.682 Q372.962,299.155 372.007,300.62 Q371.532,301.595 372.03,302.803 Q372.528,304.01 372.048,304.5 L370.108,304.521 Q370.113,305.006 370.614,306.456 Q371.114,307.906 370.15,308.401 L369.179,308.411 L368.694,308.417 Q367.74,309.882 366.79,311.832 Q365.841,313.783 364.892,315.733 Q364.422,317.194 362.737,318.424 Q361.053,319.655 360.098,321.12 Q359.138,322.101 359.887,324.033 Q360.635,325.965 360.16,326.94 Q359.685,327.916 358.473,327.929 Q357.26,327.942 356.786,328.917 Q355.356,331.357 354.895,333.545 Q354.433,335.733 353.009,338.659 Q352.534,339.634 352.044,339.154 Q351.554,338.674 351.089,340.619 Q351.11,342.559 349.425,343.79 Q347.741,345.021 347.771,347.931 Q347.813,351.811 346.118,352.072 Q344.423,352.332 344.454,355.242 Q344,358.158 342.315,359.388 Q340.63,360.619 338.716,363.065 Q338.236,363.555 338.979,365.002 Q339.722,366.449 338.757,366.945 L337.787,366.955 L337.302,366.96 Q336.822,367.45 337.323,368.9 Q337.823,370.35 337.344,370.84 Q335.899,371.826 335.176,372.319 Q334.454,372.811 333.505,374.762 Q333.51,375.247 333.765,376.457 Q334.021,377.667 333.536,377.672 Q333.536,377.672 332.566,377.682 L332.081,377.688 Q332.091,378.658 332.346,379.868 Q332.602,381.078 332.122,381.568 Q332.127,382.053 329.975,384.986 Q327.824,387.92 328.83,391.304 Q332.215,390.298 332.246,393.208 Q332.251,393.693 331.054,395.161 Q329.857,396.629 330.832,397.104 Q331.812,398.064 332.757,395.628 Q333.231,394.653 333.701,393.193 Q335.641,393.172 335.174,394.875 Q334.707,396.578 335.682,397.052 Q337.142,397.522 336.887,396.312 Q336.632,395.102 337.602,395.092 Q339.052,394.591 340.047,397.006 Q341.043,399.421 342.978,398.915 Q342.54,403.285 339.413,405.744 Q336.286,408.203 333.897,411.624 Q332.003,416.01 327.197,420.184 Q322.391,424.358 318.562,429.25 C317.852,430.157 318.218,429.571 317.672,431.124 C317.694,432.501 317.527,433.522 316.679,434.606 Q315.249,437.046 313.322,438.28 Q311.395,439.513 309.486,442.444 Q308.537,444.394 307.094,445.622 Q305.652,446.85 304.228,449.776 Q303.284,452.211 300.887,454.905 Q298.49,457.598 295.601,459.569 Q291.22,458.16 285.648,458.705 Q280.075,459.249 274.219,455.916 Q273.243,455.441 272.258,453.997 Q271.272,452.552 270.297,452.077 Q267.371,450.653 264.216,450.444 Q261.061,450.235 260.05,446.365 Q254.725,447.392 253.755,447.402 Q252.785,447.413 247.439,446.499 Q247.382,441.164 242.047,441.221 Q240.04,434.936 242.898,430.055 Q245.757,425.174 247.16,420.308 Q247.635,419.333 247.14,418.368 Q246.644,417.403 247.119,416.428 Q247.594,415.453 248.063,413.992 Q249.002,411.072 249.002,411.072 Q249.962,410.092 249.957,409.607 Q249.952,409.122 250.416,407.176 Q250.421,407.661 251.36,404.741 L252.299,401.82 Q254.224,400.345 256.112,395.474 Q258.001,390.603 259.41,386.222 Q259.404,385.737 259.146,384.285 Q258.888,382.832 259.368,382.342 Q260.328,381.362 261.755,378.679 Q263.181,375.995 264.126,373.56 Q264.6,372.585 264.345,371.375 Q264.089,370.165 264.084,369.68 L265.054,369.669 L266.024,369.659 Q266.014,368.689 265.759,367.479 Q265.503,366.269 265.983,365.779 L267.438,365.763 Q268.382,363.328 269.327,360.893 Q270.271,358.457 271.215,356.022 Q272.634,352.611 274.066,350.413 Q275.498,348.215 276.432,344.809 Q276.911,344.319 276.416,343.354 Q275.921,342.389 276.396,341.414 Q276.87,340.439 278.323,340.181 Q279.775,339.923 280.255,339.433 Q280.245,338.463 279.747,337.255 Q279.249,336.048 280.214,335.553 L281.669,335.537 Q282.149,335.047 281.648,333.597 Q281.148,332.147 281.628,331.657 Q282.587,330.677 284.011,327.751 Q285.435,324.825 286.86,321.9 Q287.819,320.919 288.782,320.181 Q289.744,319.444 290.704,318.463 Q291.178,317.488 290.68,316.281 Q290.182,315.073 290.662,314.583 Q291.622,313.603 293.781,311.397 Q295.941,309.191 295.92,307.251 Q295.9,305.311 297.107,304.813 Q298.314,304.315 299.274,303.335 Q299.269,302.849 298.768,301.4 Q298.268,299.95 299.233,299.454 Q300.192,298.474 301.379,296.036 Q302.566,293.598 304.47,290.182 Q305.424,288.717 306.144,287.981 Q306.864,287.246 307.824,286.266 Q308.299,285.291 307.801,284.083 Q307.303,282.876 307.783,282.386 L308.753,282.375 L309.723,282.365 Q312.106,278.459 314,274.073 Q315.894,269.687 318.272,265.296 Q319.232,264.316 320.194,263.578 Q321.157,262.84 322.116,261.86 Q323.076,260.879 323.066,259.909 Q323.056,258.939 324.015,257.959 Q326.394,253.568 329.268,250.142 Q330.228,249.161 330.945,248.184 Q331.662,247.206 332.137,246.231 Q333.096,245.25 333.089,244.523 Q333.081,243.795 334.041,242.815 Q336.435,239.879 337.624,237.683 Q338.814,235.488 341.197,231.582 Q342.621,228.656 345.029,226.933 Q347.436,225.209 349.825,221.788 Q350.784,220.808 350.764,218.868 Q350.743,216.928 351.703,215.947 Q352.662,214.967 354.105,213.739 Q355.547,212.511 356.976,210.07 Q357.936,209.09 357.691,208.85 Q357.446,208.61 358.901,208.595 Q360.356,208.579 361.06,206.389 Q361.764,204.198 362.724,203.218 Q363.199,202.243 363.926,202.235 Q364.654,202.227 365.614,201.247 Q366.573,200.267 366.553,198.327 Q366.532,196.386 367.492,195.406 Q367.972,194.916 369.189,195.388 Q370.407,195.86 370.887,195.37 Q370.887,195.37 370.866,193.43 Q373.255,190.009 376.132,186.825 Q379.008,183.642 381.392,179.736 Q355.247,184.38 328.649,191.939 Q322.364,193.946 315.834,195.713 Q309.304,197.481 303.51,199.968 Q302.06,200.468 300.122,200.731 Q298.185,200.994 296.255,201.985 Q295.775,202.475 294.821,203.941 Q293.866,205.406 292.901,205.901 Q290.486,206.897 289.271,206.668 Q288.056,206.438 284.186,207.449 Q281.772,208.445 281.044,208.453 C279.054,208.274 277.083,207.905 275.114,207.572 C274.956,206.967 275.071,207.303 274.718,206.58 Q273.975,205.133 273.015,206.113 Q272.066,208.063 269.636,207.604 Q268.66,207.13 267.68,206.17 Q266.7,205.21 265.719,204.25 Q264.739,203.291 265.219,202.8 Q265.699,202.31 264.244,202.326 Q263.273,202.336 258.901,201.655 Q254.528,200.974 255.451,196.598 Q253.49,194.679 252.771,195.414 Q252.051,196.15 250.116,196.655 Q250.601,196.65 249.889,198.113 Q249.177,199.576 248.196,198.616 Q247.211,197.171 246.741,198.631 Q244.791,197.682 244.288,195.99 Q243.785,194.297 242.799,192.852 Q241.809,190.923 239.861,190.216 Q237.913,189.509 237.402,187.089 Q237.345,181.754 242.417,179.759 Q247.489,177.765 251.839,176.264 Q253.769,175.273 255.941,174.28 Q258.114,173.286 260.528,172.29 Q261.013,172.285 264.158,171.524 Q267.303,170.763 267.298,170.278 Q268.253,168.813 270.915,168.299 Q273.578,167.786 278.412,166.279 Q278.407,165.794 278.887,165.304 Q278.887,165.304 279.847,164.324 Q284.687,163.302 290.494,162.027 Q296.301,160.753 301.126,158.276 Q301.611,158.271 303.069,158.498 Q304.526,158.725 304.521,158.24 Q305.961,156.769 309.828,155.516 Q313.695,154.262 318.778,153.238 Q323.86,152.213 328.705,151.677 Q333.55,151.14 336.45,150.139 Q336.935,150.134 337.17,149.404 Q337.405,148.674 338.375,148.663 Q343.705,148.121 349.51,146.604 Q355.314,145.087 362.1,144.53 Q365.975,144.004 368.64,143.733 Q371.305,143.462 377.6,142.425 Q382.925,141.398 391.647,140.578 L396.04,140.273 z M288.492,367.389 C287.641,367.398 288.022,367.348 287.345,367.492 Q286.88,369.437 285.209,371.88 Q283.537,374.324 284.032,375.288 Q284.037,375.773 285.234,374.305 Q286.432,372.837 287.629,371.37 Q288.826,369.902 289.053,368.444 C289.127,367.76 289.055,367.703 288.492,367.389 z M331.926,363.137 L328.53,363.173 L328.572,367.053 L331.967,367.017 L331.926,363.137 z M331.802,351.496 Q332.313,353.916 332.08,354.889 Q331.848,355.861 331.374,356.837 Q330.899,357.812 330.424,358.787 Q329.949,359.762 330.45,361.212 Q332.395,361.677 333.592,360.209 Q334.789,358.741 335.011,356.798 Q335.233,354.855 334.488,353.165 Q333.742,351.476 331.802,351.496 z M342.318,336.832 L335.042,336.909 Q336.053,340.779 333.876,341.288 Q331.699,341.796 331.724,344.221 Q331.281,348.106 332.274,350.279 Q333.267,352.451 337.137,351.439 Q336.141,349.025 337.583,347.797 Q339.026,346.569 337.08,346.104 Q334.691,349.525 336.113,346.357 Q337.534,343.189 337.024,340.769 Q338.984,342.688 340.672,341.7 Q342.359,340.712 342.318,336.832 z M341.103,325.62 C339.245,325.434 338.199,326.317 337.127,327.671 Q334.5,331.579 333.081,334.99 Q338.422,335.418 340.581,333.212 Q342.741,331.007 344.154,327.111 C342.495,325.991 343.484,326.543 341.103,325.62 z M383.559,230.727 C379.943,230.844 380.019,233.638 380.541,236.499 Q376.176,236.545 375.247,240.436 Q376.217,240.426 376.467,241.15 Q376.718,241.875 375.268,242.376 L369.448,242.438 Q368.488,243.418 369.004,246.323 Q369.52,249.228 368.091,251.669 Q367.611,252.159 366.158,252.417 Q364.706,252.675 364.231,253.65 Q364.246,255.105 365.477,256.79 Q366.708,258.475 366.233,259.45 Q366.238,259.935 364.786,260.193 Q363.333,260.451 363.344,261.421 Q362.384,262.401 362.159,264.101 Q361.935,265.802 361.46,266.777 Q360.036,269.702 358.622,273.598 Q357.209,277.494 354.288,276.555 Q354.314,278.98 354.092,280.923 Q353.87,282.865 352.425,283.851 Q351.946,284.341 352.443,285.548 Q352.941,286.756 352.467,287.731 Q351.992,288.706 350.79,289.689 Q349.588,290.672 349.113,291.647 Q348.169,294.083 348.187,295.78 Q348.205,297.478 347.25,298.943 Q346.301,300.894 346.319,302.591 Q346.337,304.289 345.393,306.724 Q344.443,308.675 342.986,308.448 Q341.528,308.221 343.974,310.135 Q344.464,310.615 342.315,313.791 Q340.166,316.967 340.176,317.937 Q341.151,318.411 341.636,318.406 Q342.617,319.366 342.137,319.856 Q338.747,320.377 336.838,323.308 Q346.564,325.63 347.451,317.859 Q345.991,317.39 344.051,317.41 Q342.111,317.431 342.096,315.976 Q345.976,315.935 346.665,312.289 Q347.353,308.644 347.312,304.764 Q348.762,304.263 350.705,304.485 Q352.647,304.707 352.627,302.767 Q350.681,302.302 351.154,301.085 Q351.626,299.867 352.585,298.887 L353.524,295.966 L354.464,293.046 Q354.458,292.561 354.203,291.351 Q353.948,290.141 354.427,289.65 Q354.902,288.675 356.602,288.9 Q358.302,289.124 357.802,287.674 Q354.887,287.22 357.283,284.527 Q359.68,281.833 357.699,277.974 Q361.584,278.417 362.046,276.23 Q362.508,274.042 363.462,272.577 Q363.937,271.601 364.897,270.621 Q365.856,269.641 366.331,268.665 Q367.275,266.23 367.242,263.077 Q367.208,259.925 368.152,257.489 Q368.627,256.514 370.57,256.736 Q372.513,256.958 371.527,255.513 Q368.127,255.064 371.024,253.82 Q373.921,252.577 373.426,251.612 Q372.93,250.647 370.995,251.153 Q369.061,251.659 369.525,249.713 Q375.35,250.136 374.37,249.177 Q373.39,248.217 371.424,245.812 L378.699,245.735 Q377.698,242.835 378.413,241.615 Q379.127,240.395 380.087,239.414 Q381.047,238.434 381.761,237.214 Q382.476,235.993 381.96,233.088 Q382.925,232.593 384.377,232.335 Q385.83,232.077 385.82,231.107 C384.53,230.795 385.279,230.944 383.559,230.727 z M322.493,297.266 Q321.064,299.707 321.34,302.857 Q321.616,306.007 322.576,305.027 Q323.536,304.046 324.725,301.851 Q325.914,299.655 322.493,297.266 z M329.65,286.033 Q329.665,287.489 328.223,288.717 Q326.781,289.945 325.339,291.173 Q323.897,292.401 323.422,293.376 Q322.947,294.351 324.413,295.306 Q324.392,293.366 325.847,293.35 Q325.857,294.32 326.59,294.797 Q327.323,295.275 327.787,293.329 Q325.847,293.35 326.564,292.372 Q327.282,291.395 328.724,290.167 Q330.166,288.938 330.881,287.718 Q331.595,286.498 329.65,286.033 z M387.595,215.565 Q388.111,218.47 386.421,219.216 Q384.731,219.962 383.776,221.427 Q384.256,220.937 385.234,221.654 Q386.212,222.371 385.737,223.346 Q385.262,224.322 382.842,224.832 Q380.422,225.343 380.443,227.283 Q381.919,229.208 384.328,227.727 Q386.738,226.246 388.41,223.803 Q390.082,221.36 390.298,218.932 Q390.515,216.505 387.595,215.565 z M397.703,208.182 Q392.852,208.233 390.948,211.649 Q397.749,212.547 397.703,208.182 z M274.971,207.547 L275.114,207.572 C275.156,207.733 275.166,207.686 274.971,207.547 z" fill="rgba(0,0,0,0.75)"/>
      <path d="M342.978,398.915 Q342.54,403.285 339.413,405.744 Q336.286,408.203 333.897,411.624 Q332.003,416.01 327.197,420.184 Q322.391,424.358 318.562,429.25 Q317.602,430.23 317.62,431.928 Q317.638,433.625 316.679,434.606 Q315.249,437.046 313.322,438.28 Q311.395,439.513 309.486,442.444 Q308.537,444.394 307.094,445.622 Q305.652,446.85 304.228,449.776 Q303.284,452.211 300.887,454.905 Q298.49,457.598 295.601,459.569 Q291.22,458.16 285.648,458.705 Q280.075,459.249 274.219,455.916 Q273.243,455.441 272.258,453.997 Q271.272,452.552 270.297,452.077 Q267.371,450.653 264.216,450.444 Q261.061,450.235 260.05,446.365 Q254.725,447.392 253.755,447.402 Q252.785,447.413 247.439,446.499 Q247.382,441.164 242.047,441.221 Q240.04,434.936 242.898,430.055 Q245.757,425.174 247.16,420.308 Q247.635,419.333 247.14,418.368 Q246.644,417.403 247.119,416.428 Q247.594,415.453 248.063,413.992 Q249.002,411.072 249.002,411.072 Q249.962,410.092 249.957,409.607 Q249.952,409.122 250.416,407.176 Q250.421,407.661 251.36,404.741 L252.299,401.82 Q254.224,400.345 256.112,395.474 Q258.001,390.603 259.41,386.222 Q259.404,385.737 259.146,384.285 Q258.888,382.832 259.368,382.342 Q260.328,381.362 261.755,378.679 Q263.181,375.995 264.126,373.56 Q264.6,372.585 264.345,371.375 Q264.089,370.165 264.084,369.68 L265.054,369.669 L266.024,369.659 Q266.014,368.689 265.759,367.479 Q265.503,366.269 265.983,365.779 L267.438,365.763 Q268.382,363.328 269.327,360.893 Q270.271,358.457 271.215,356.022 Q272.634,352.611 274.066,350.413 Q275.498,348.215 276.432,344.809 Q276.911,344.319 276.416,343.354 Q275.921,342.389 276.396,341.414 Q276.87,340.439 278.323,340.181 Q279.775,339.923 280.255,339.433 Q280.245,338.463 279.747,337.255 Q279.249,336.048 280.214,335.553 L281.669,335.537 Q282.149,335.047 281.648,333.597 Q281.148,332.147 281.628,331.657 Q282.587,330.677 284.011,327.751 Q285.435,324.825 286.86,321.9 Q287.819,320.919 288.782,320.181 Q289.744,319.444 290.704,318.463 Q291.178,317.488 290.68,316.281 Q290.182,315.073 290.662,314.583 Q291.622,313.603 293.781,311.397 Q295.941,309.191 295.92,307.251 Q295.9,305.311 297.107,304.813 Q298.314,304.315 299.274,303.335 Q299.269,302.849 298.768,301.4 Q298.268,299.95 299.233,299.454 Q300.192,298.474 301.379,296.036 Q302.566,293.598 304.47,290.182 Q305.424,288.717 306.144,287.981 Q306.864,287.246 307.824,286.266 Q308.299,285.291 307.801,284.083 Q307.303,282.876 307.783,282.386 L308.753,282.375 L309.723,282.365 Q312.106,278.459 314,274.073 Q315.894,269.687 318.272,265.296 Q319.232,264.316 320.194,263.578 Q321.157,262.84 322.116,261.86 Q323.076,260.879 323.066,259.909 Q323.056,258.939 324.015,257.959 Q326.394,253.568 329.268,250.142 Q330.228,249.161 330.945,248.184 Q331.662,247.206 332.137,246.231 Q333.096,245.25 333.089,244.523 Q333.081,243.795 334.041,242.815 Q336.435,239.879 337.624,237.683 Q338.814,235.488 341.197,231.582 Q342.621,228.656 345.029,226.933 Q347.436,225.209 349.825,221.788 Q350.784,220.808 350.764,218.868 Q350.743,216.928 351.703,215.947 Q352.662,214.967 354.105,213.739 Q355.547,212.511 356.976,210.07 Q357.936,209.09 357.691,208.85 Q357.446,208.61 358.901,208.595 Q360.356,208.579 361.06,206.389 Q361.764,204.198 362.724,203.218 Q363.199,202.243 363.926,202.235 Q364.654,202.227 365.614,201.247 Q366.573,200.267 366.553,198.327 Q366.532,196.386 367.492,195.406 Q367.972,194.916 369.189,195.388 Q370.407,195.86 370.887,195.37 Q370.887,195.37 370.866,193.43 Q373.255,190.009 376.132,186.825 Q379.008,183.642 381.392,179.736 Q355.247,184.38 328.649,191.939 Q322.364,193.946 315.834,195.713 Q309.304,197.481 303.51,199.968 Q302.06,200.468 300.122,200.731 Q298.185,200.994 296.255,201.985 Q295.775,202.475 294.821,203.941 Q293.866,205.406 292.901,205.901 Q290.486,206.897 289.271,206.668 Q288.056,206.438 284.186,207.449 Q281.772,208.445 281.044,208.453 Q280.316,208.461 274.971,207.548 Q275.461,208.027 274.718,206.58 Q273.975,205.133 273.015,206.113 Q272.066,208.063 269.636,207.604 Q268.66,207.13 267.68,206.17 Q266.7,205.21 265.719,204.25 Q264.739,203.291 265.219,202.8 Q265.699,202.31 264.244,202.326 Q263.273,202.336 258.901,201.655 Q254.528,200.974 255.451,196.598 Q253.49,194.679 252.771,195.414 Q252.051,196.15 250.116,196.655 Q250.601,196.65 249.889,198.113 Q249.177,199.576 248.196,198.616 Q247.211,197.171 246.741,198.631 Q244.791,197.682 244.288,195.99 Q243.785,194.297 242.799,192.852 Q241.809,190.923 239.861,190.216 Q237.913,189.509 237.402,187.089 Q237.345,181.754 242.417,179.759 Q247.489,177.765 251.839,176.264 Q253.769,175.273 255.941,174.28 Q258.114,173.286 260.528,172.29 Q261.013,172.285 264.158,171.524 Q267.303,170.763 267.298,170.278 Q268.253,168.813 270.915,168.299 Q273.578,167.786 278.412,166.279 Q278.407,165.794 278.887,165.304 Q278.887,165.304 279.847,164.324 Q284.687,163.302 290.494,162.027 Q296.301,160.753 301.126,158.276 Q301.611,158.271 303.069,158.498 Q304.526,158.725 304.521,158.24 Q305.961,156.769 309.828,155.516 Q313.695,154.262 318.778,153.238 Q323.86,152.213 328.705,151.677 Q333.55,151.14 336.45,150.139 Q336.935,150.134 337.17,149.404 Q337.405,148.674 338.375,148.663 Q343.705,148.121 349.51,146.604 Q355.314,145.087 362.1,144.53 Q365.975,144.004 368.64,143.733 Q371.305,143.462 377.6,142.425 Q382.925,141.398 391.647,140.578 Q400.37,139.757 409.596,140.629 Q413.017,143.018 416.667,144.192 Q420.318,145.366 424.224,147.75 Q425.194,147.739 424.959,148.469 Q424.724,149.2 426.179,149.184 Q428.125,149.648 428.857,150.126 Q429.59,150.603 431.05,151.073 Q434.946,152.486 439.82,154.617 Q444.693,156.748 449.079,158.642 Q449.569,159.122 451.019,158.621 Q452.469,158.121 452.474,158.606 Q453.95,160.53 454.915,160.035 Q455.88,159.54 458.315,160.484 Q459.295,161.444 460.781,164.338 Q462.267,167.233 464.703,168.177 Q463.759,170.613 463.537,172.555 Q463.315,174.498 461.886,176.939 Q460.936,178.889 459.252,180.12 Q457.567,181.35 456.612,182.816 Q456.138,183.791 456.636,184.998 Q457.133,186.206 456.654,186.696 Q451.845,190.628 447.541,196.494 Q445.152,199.915 442.268,202.372 Q439.384,204.828 436.99,207.764 Q434.59,210.214 432.689,213.873 Q430.787,217.531 428.398,220.952 Q427.439,221.932 425.266,222.926 Q423.094,223.919 423.125,226.829 Q423.151,229.254 419.072,233.421 Q414.993,237.587 412.594,240.038 Q411.634,241.019 410.437,242.487 Q409.24,243.955 408.771,245.415 Q408.781,246.385 407.339,247.613 Q405.897,248.841 405.417,249.331 Q404.457,250.312 404.467,251.282 Q404.478,252.252 403.518,253.232 Q402.563,254.698 400.879,255.928 Q399.194,257.159 398.245,259.109 Q397.295,261.06 396.828,262.762 Q396.361,264.465 395.412,266.416 Q393.503,269.346 391.828,271.547 Q390.154,273.748 388.255,277.648 Q387.781,278.624 387.048,278.146 Q386.315,277.669 386.336,279.609 L386.356,281.549 Q385.402,283.015 383.717,284.245 Q382.033,285.476 381.083,287.426 Q380.129,288.892 379.422,290.84 Q378.715,292.788 377.28,294.743 Q376.326,296.208 374.644,297.682 Q372.962,299.155 372.007,300.62 Q371.532,301.595 372.03,302.803 Q372.528,304.01 372.048,304.5 L370.108,304.521 Q370.113,305.006 370.614,306.456 Q371.114,307.906 370.15,308.401 L369.179,308.411 L368.694,308.417 Q367.74,309.882 366.79,311.832 Q365.841,313.783 364.892,315.733 Q364.422,317.194 362.737,318.424 Q361.053,319.655 360.098,321.12 Q359.138,322.101 359.887,324.033 Q360.635,325.965 360.16,326.94 Q359.685,327.916 358.473,327.929 Q357.26,327.942 356.786,328.917 Q355.356,331.357 354.895,333.545 Q354.433,335.733 353.009,338.659 Q352.534,339.634 352.044,339.154 Q351.554,338.674 351.089,340.619 Q351.11,342.559 349.425,343.79 Q347.741,345.021 347.771,347.931 Q347.813,351.811 346.118,352.072 Q344.423,352.332 344.454,355.242 Q344,358.158 342.315,359.388 Q340.63,360.619 338.716,363.065 Q338.236,363.555 338.979,365.002 Q339.722,366.449 338.757,366.945 L337.787,366.955 L337.302,366.96 Q336.822,367.45 337.323,368.9 Q337.823,370.35 337.344,370.84 Q335.899,371.826 335.176,372.319 Q334.454,372.811 333.505,374.762 Q333.51,375.247 333.765,376.457 Q334.021,377.667 333.536,377.672 Q333.536,377.672 332.566,377.682 L332.081,377.688 Q332.091,378.658 332.346,379.868 Q332.602,381.078 332.122,381.568 Q332.127,382.053 329.975,384.986 Q327.824,387.92 328.83,391.304 Q332.215,390.298 332.246,393.208 Q332.251,393.693 331.054,395.161 Q329.857,396.629 330.832,397.104 Q331.812,398.064 332.757,395.628 Q333.231,394.653 333.701,393.193 Q335.641,393.172 335.174,394.875 Q334.707,396.578 335.682,397.052 Q337.142,397.522 336.887,396.312 Q336.632,395.102 337.602,395.092 Q339.052,394.591 340.047,397.006 Q341.043,399.421 342.978,398.915 z M390.948,211.649 Q397.749,212.547 397.703,208.182 Q392.852,208.233 390.948,211.649 z M383.776,221.427 Q384.256,220.937 385.234,221.654 Q386.212,222.371 385.737,223.346 Q385.262,224.322 382.842,224.832 Q380.422,225.343 380.443,227.283 Q381.919,229.208 384.328,227.727 Q386.738,226.246 388.41,223.803 Q390.082,221.36 390.298,218.932 Q390.515,216.505 387.595,215.565 Q388.111,218.47 386.421,219.216 Q384.731,219.962 383.776,221.427 z M368.091,251.669 Q367.611,252.159 366.158,252.417 Q364.706,252.675 364.231,253.65 Q364.246,255.105 365.477,256.79 Q366.708,258.475 366.233,259.45 Q366.238,259.935 364.786,260.193 Q363.333,260.451 363.344,261.421 Q362.384,262.401 362.159,264.101 Q361.935,265.802 361.46,266.777 Q360.036,269.702 358.622,273.598 Q357.209,277.494 354.288,276.555 Q354.314,278.98 354.092,280.923 Q353.87,282.865 352.425,283.851 Q351.946,284.341 352.443,285.548 Q352.941,286.756 352.467,287.731 Q351.992,288.706 350.79,289.689 Q349.588,290.672 349.113,291.647 Q348.169,294.083 348.187,295.78 Q348.205,297.478 347.25,298.943 Q346.301,300.894 346.319,302.591 Q346.337,304.289 345.393,306.724 Q344.443,308.675 342.986,308.448 Q341.528,308.221 343.974,310.135 Q344.464,310.615 342.315,313.791 Q340.166,316.967 340.176,317.937 Q341.151,318.411 341.636,318.406 Q342.617,319.366 342.137,319.856 Q338.747,320.377 336.838,323.308 Q346.564,325.63 347.451,317.859 Q345.991,317.39 344.051,317.41 Q342.111,317.431 342.096,315.976 Q345.976,315.935 346.665,312.289 Q347.353,308.644 347.312,304.764 Q348.762,304.263 350.705,304.485 Q352.647,304.707 352.627,302.767 Q350.681,302.302 351.154,301.085 Q351.626,299.867 352.585,298.887 L353.524,295.966 L354.464,293.046 Q354.458,292.561 354.203,291.351 Q353.948,290.141 354.427,289.65 Q354.902,288.675 356.602,288.9 Q358.302,289.124 357.802,287.674 Q354.887,287.22 357.283,284.527 Q359.68,281.833 357.699,277.974 Q361.584,278.417 362.046,276.23 Q362.508,274.042 363.462,272.577 Q363.937,271.601 364.897,270.621 Q365.856,269.641 366.331,268.665 Q367.275,266.23 367.242,263.077 Q367.208,259.925 368.152,257.489 Q368.627,256.514 370.57,256.736 Q372.513,256.958 371.527,255.513 Q368.127,255.064 371.024,253.82 Q373.921,252.577 373.426,251.612 Q372.93,250.647 370.995,251.153 Q369.061,251.659 369.525,249.713 Q375.35,250.136 374.37,249.177 Q373.39,248.217 371.424,245.812 L378.699,245.735 Q377.698,242.835 378.413,241.615 Q379.127,240.395 380.087,239.414 Q381.047,238.434 381.761,237.214 Q382.476,235.993 381.96,233.088 Q382.925,232.593 384.377,232.335 Q385.83,232.077 385.82,231.107 Q379.009,229.239 380.541,236.499 Q376.176,236.545 375.247,240.436 Q376.217,240.426 376.467,241.15 Q376.718,241.875 375.268,242.376 L369.448,242.438 Q368.488,243.418 369.004,246.323 Q369.52,249.228 368.091,251.669 z M324.413,295.306 Q324.392,293.366 325.847,293.35 Q325.857,294.32 326.59,294.797 Q327.323,295.275 327.787,293.329 Q325.847,293.35 326.564,292.372 Q327.282,291.395 328.724,290.167 Q330.166,288.938 330.881,287.718 Q331.595,286.498 329.65,286.033 Q329.665,287.489 328.223,288.717 Q326.781,289.945 325.339,291.173 Q323.897,292.401 323.422,293.376 Q322.947,294.351 324.413,295.306 z M322.576,305.027 Q323.536,304.046 324.725,301.851 Q325.914,299.655 322.493,297.266 Q321.064,299.707 321.34,302.857 Q321.616,306.007 322.576,305.027 z M333.081,334.99 Q338.422,335.418 340.581,333.212 Q342.741,331.007 344.154,327.111 Q339.753,323.762 337.127,327.671 Q334.5,331.579 333.081,334.99 z M331.802,351.496 Q332.313,353.916 332.08,354.889 Q331.848,355.861 331.374,356.837 Q330.899,357.812 330.424,358.787 Q329.949,359.762 330.45,361.212 Q332.395,361.677 333.592,360.209 Q334.789,358.741 335.011,356.798 Q335.233,354.855 334.488,353.165 Q333.742,351.476 331.802,351.496 z M337.024,340.769 Q338.984,342.688 340.672,341.7 Q342.359,340.712 342.318,336.832 L335.042,336.909 Q336.053,340.779 333.876,341.288 Q331.699,341.796 331.724,344.221 Q331.281,348.106 332.274,350.279 Q333.267,352.451 337.137,351.439 Q336.141,349.025 337.583,347.797 Q339.026,346.569 337.08,346.104 Q334.691,349.525 336.113,346.357 Q337.534,343.189 337.024,340.769 z M331.967,367.017 L331.926,363.137 L328.531,363.173 L328.572,367.053 z M284.032,375.288 Q284.037,375.773 285.234,374.305 Q286.432,372.837 287.629,371.37 Q288.826,369.902 289.053,368.444 Q289.28,366.986 287.345,367.492 Q286.88,369.437 285.209,371.88 Q283.537,374.324 284.032,375.288 z" fill="#AA182B"/>
    </g>
  </g>
  <defs/>
</svg>